HIERARCHY
ROOT Hips
{
    OFFSET 0.000000 0.000000 0.000000
    CHANNELS 6 Xposition Yposition Zposition Zrotation Xrotation Yrotation
        JOINT Chest
        {
            OFFSET -0.000000 31.966684 -0.000000
            CHANNELS 3 Zrotation Xrotation Yrotation
            JOINT Neck
            {
                OFFSET -0.000000 23.973995 0.000000
                CHANNELS 3 Zrotation Xrotation Yrotation
                JOINT Head
                {
                    OFFSET -0.000000 10.633333 0.000000
                    CHANNELS 3 Zrotation Xrotation Yrotation
                    End Site
                    {
                        OFFSET -0.000000 16.433334 0.000000
                    }
                }
            }
            JOINT LeftCollar
            {
                OFFSET -0.000000 23.973995 0.000000
                CHANNELS 3 Zrotation Xrotation Yrotation
                JOINT LeftShoulder
                {
                    OFFSET 19.333332 -0.000000 0.000000
                    CHANNELS 3 Zrotation Xrotation Yrotation
                    JOINT LeftElbow
                    {
                        OFFSET 20.067463 0.000000 0.000000
                        CHANNELS 3 Zrotation Xrotation Yrotation
                        JOINT LeftWrist
                        {
                            OFFSET 23.490957 0.000000 0.000000
                            CHANNELS 3 Zrotation Xrotation Yrotation
                            End Site
                            {
                                OFFSET 0.000000 -14.500000 0.000000
                            }
                        }
                    }
                }
            }
            JOINT RightCollar
            {
                OFFSET -0.000000 23.973995 0.000000
                CHANNELS 3 Zrotation Xrotation Yrotation
                JOINT RightShoulder
                {
                    OFFSET -19.333332 0.000000 0.000000
                    CHANNELS 3 Zrotation Xrotation Yrotation
                    JOINT RightElbow
                    {
                        OFFSET -20.067463 0.000000 0.000000
                        CHANNELS 3 Zrotation Xrotation Yrotation
                        JOINT RightWrist
                        {
                            OFFSET -23.490957 0.000000 0.000000
                            CHANNELS 3 Zrotation Xrotation Yrotation
                            End Site
                            {
                                OFFSET -0.000000 -14.500000 0.000000
                            }
                        }
                    }
                }
            }
        }
    JOINT LeftHip
    {
        OFFSET 11.599999 0.000000 0.000000
        CHANNELS 3 Zrotation Xrotation Yrotation
        JOINT LeftKnee
        {
            OFFSET -0.000000 -35.131119 0.000000
            CHANNELS 3 Zrotation Xrotation Yrotation
            JOINT LeftAnkle
            {
                OFFSET -0.000000 -37.839104 0.000000
                CHANNELS 3 Zrotation Xrotation Yrotation
                End Site
                {
                    OFFSET -0.000000 -4.833333 16.433334
                }
            }
        }
    }
    JOINT RightHip
    {
        OFFSET -11.599999 0.000000 0.000000
        CHANNELS 3 Zrotation Xrotation Yrotation
        JOINT RightKnee
        {
            OFFSET -0.000000 -35.131119 0.000000
            CHANNELS 3 Zrotation Xrotation Yrotation
            JOINT RightAnkle
            {
                OFFSET -0.000000 -37.839104 0.000000
                CHANNELS 3 Zrotation Xrotation Yrotation
                End Site
                {
                    OFFSET -0.000000 -4.833333 16.433334
                }
            }
        }
    }
}
MOTION
Frames:    10
Frame Time:    0.010000
-3.870918    84.880394    -69.229172    0.572374    -5.218000    -60.569187    -6.063779    11.333883    -0.973086    13.293612    0.380550    11.383078    -18.398296    -3.187908    11.634484    -15.278628    0.162294    -1.001396    -30.971846    41.734047    -37.996040    -18.371870    7.771382    -45.387180    90.221741    -5.240886    27.552145    13.822665    -0.000254    0.228713    50.142654    45.707668    16.766373    0.321016    0.128444    49.569504    -95.400932    13.861017    6.687195    8.012012    -0.433756    8.759358    -5.539589    17.103052    -3.550875    -4.640158    -8.174407    25.425047    -1.351605    5.068604    -4.405152    1.679164    4.235981    -7.252960    2.227561    -6.206995    -20.936012    
-3.841163    84.894196    -69.236183    0.468692    -5.266265    -60.769630    -5.762753    11.508545    -0.900472    11.291000    0.164230    11.909320    -17.207794    -5.403498    11.132698    -15.567899    0.091236    -0.171934    -31.351786    41.365932    -38.015934    -18.452026    7.777352    -45.380905    90.478836    -5.563530    27.236965    13.284801    0.070016    1.124065    50.255230    45.733807    16.464142    0.481225    0.255799    49.688198    -95.811195    13.664056    6.727859    7.978423    -0.401032    8.974701    -5.376258    17.313530    -4.022429    -4.841622    -8.256402    25.770304    -1.372777    5.106098    -4.419158    1.671883    4.279076    -7.112857    2.239975    -6.192485    -20.873657    
-3.751400    84.883293    -69.249313    0.583264    -5.200964    -60.918934    -5.720386    11.366609    -0.881982    11.301735    0.360317    11.903688    -17.233255    -5.694879    11.075203    -15.608994    0.047111    -0.133931    -31.340368    41.547272    -37.992031    -18.349318    7.722930    -45.435841    90.414268    -5.484934    27.049425    13.288043    0.098062    1.130139    50.421642    45.726135    16.213289    0.404696    0.218348    49.889812    -95.847504    13.623293    6.875744    7.938333    -0.616503    8.595991    -5.496108    17.313046    -3.078511    -3.927510    -7.544418    25.216125    -1.428657    4.840066    -4.378702    1.705990    4.295068    -7.634536    2.197369    -6.021476    -20.252254    
-3.706139    84.888557    -69.259438    0.621944    -5.188660    -61.044060    -5.678399    11.351339    -0.837887    11.322662    0.333780    11.918488    -17.238165    -5.620572    11.099756    -15.615799    0.007563    -0.164164    -31.420340    41.599884    -37.922424    -18.310511    7.732715    -45.432495    90.474747    -5.554051    26.916279    13.252882    0.125359    1.099986    50.531979    45.690403    16.094690    0.448649    0.209145    50.001831    -96.078056    13.570410    6.978469    7.897519    -0.710222    8.464094    -5.516691    17.360754    -2.675015    -3.780710    -7.354945    25.052921    -1.477874    4.727225    -4.357974    1.729100    4.317096    -7.727648    2.191461    -5.968975    -20.060249    
-3.652513    84.894028    -69.270859    0.689628    -5.170966    -61.184792    -5.635132    11.300050    -0.776073    11.340090    0.337154    11.928021    -17.244062    -5.570085    11.116462    -15.638528    0.041898    -0.192053    -31.483833    41.603962    -37.874386    -18.391973    7.751582    -45.379253    90.646072    -5.640786    26.722940    13.218046    0.090430    1.066242    50.694038    45.701576    15.899673    0.389046    0.181511    50.154125    -96.207436    13.538770    7.081741    7.842222    -0.836077    8.265240    -5.562751    17.399508    -2.101884    -3.650488    -7.153249    24.830622    -1.546016    4.574091    -4.336673    1.760248    4.350554    -7.783501    2.189042    -5.922271    -19.884735    
-3.591874    84.898796    -69.282433    0.784646    -5.149244    -61.341789    -5.595521    11.212525    -0.693692    11.375036    0.379949    11.926462    -17.267790    -5.551598    11.120316    -15.675990    0.002470    -0.226516    -31.550783    41.708878    -37.809082    -18.200274    7.647970    -45.443546    90.609009    -5.590899    26.524851    13.187949    0.117863    1.020486    50.838028    45.647266    15.730943    0.519195    0.261948    50.209652    -96.576332    13.479701    7.194128    7.774793    -0.987930    7.998616    -5.638670    17.426718    -1.368632    -3.541703    -6.951078    24.558161    -1.631954    4.382961    -4.317086    1.797618    4.398973    -7.777721    2.194736    -5.888484    -19.747707    
-3.526882    84.902527    -69.293060    0.897251    -5.126778    -61.517700    -5.560371    11.097940    -0.588945    11.421652    0.467893    11.915958    -17.305527    -5.575131    11.113135    -15.726763    0.030665    -0.264739    -31.628473    41.752625    -37.719921    -18.187204    7.683651    -45.430080    90.847481    -5.528358    26.357054    13.165621    0.089495    0.969095    51.007240    45.635303    15.520583    0.529289    0.243144    50.326675    -96.842789    13.452079    7.303370    7.700947    -1.150753    7.677689    -5.745186    17.442871    -0.511102    -3.455900    -6.762434    24.253046    -1.731406    4.164885    -4.300111    1.838348    4.464421    -7.695095    2.211809    -5.873021    -19.662485    
-3.461371    84.905289    -69.301674    1.010657    -5.108116    -61.716206    -5.528930    10.974264    -0.461448    11.476936    0.599041    11.899806    -17.354084    -5.643926    11.097127    -15.788164    0.065235    -0.306094    -31.707771    41.796364    -37.622635    -18.097128    7.641797    -45.479221    91.109802    -5.343741    26.157507    13.149494    0.123498    0.917090    51.146584    45.549587    15.352957    0.691243    0.362526    50.336792    -97.254013    13.399988    7.365477    7.629211    -1.302741    7.330644    -5.878465    17.451551    0.412544    -3.392042    -6.600896    23.937986    -1.837412    3.939075    -4.284254    1.879192    4.546104    -7.535654    2.241474    -5.877983    -19.629723    
-3.399498    84.907402    -69.307350    1.105412    -5.097692    -61.940796    -5.498703    10.862496    -0.312166    11.536097    0.765493    11.882087    -17.408255    -5.753166    11.076877    -15.856028    0.065623    -0.349873    -31.822447    41.857792    -37.473835    -17.952360    7.570346    -45.576344    91.426109    -5.048583    25.952982    13.141195    0.123369    0.870438    51.289776    45.478458    15.177667    0.782735    0.390920    50.383873    -97.603882    13.372403    7.399783    7.568750    -1.420915    6.994819    -6.030502    17.459061    1.332121    -3.347264    -6.477604    23.637445    -1.941710    3.727556    -4.265728    1.917043    4.641498    -7.312778    2.282399    -5.902041    -19.639181    
-3.345134    84.909180    -69.309525    1.162717    -5.098840    -62.193050    -5.467617    10.783158    -0.143801    11.603209    0.951872    11.865185    -17.468294    -5.887458    11.055731    -15.924996    0.046291    -0.399030    -31.981522    41.908955    -37.263721    -17.837446    7.533919    -45.676186    91.845573    -4.692560    25.754089    13.140412    0.123357    0.828565    51.431492    45.375759    15.010777    0.927024    0.477463    50.375423    -97.965103    13.342275    7.388882    7.528372    -1.485485    6.709727    -6.191237    17.473763    2.176324    -3.318219    -6.400295    23.375000    -2.036170    3.551941    -4.239748    1.950158    4.746426    -7.048887    2.330083    -5.941392    -19.674110    
